#N canvas 524 66 295 327 12;
#X obj -532 48 sel 240;
#X msg -334 161 add2 \$1;
#X obj -455 93 sel 247;
#X msg -418 160 add2 247;
#X msg -532 130 set 240;
#X obj -532 12 inlet;
#X obj -532 255 outlet;
#X obj -455 129 t b b;
#X msg -532 210;
#X connect 0 0 4 0;
#X connect 0 1 2 0;
#X connect 1 0 8 0;
#X connect 2 0 7 0;
#X connect 2 1 1 0;
#X connect 3 0 8 0;
#X connect 4 0 8 0;
#X connect 5 0 0 0;
#X connect 7 0 8 0;
#X connect 7 1 3 0;
#X connect 8 0 6 0;
