#N canvas 524 66 295 327 12;
#X obj -532 48 sel 240;
#X obj -532 94 bng 15 250 50 0 empty empty empty 17 7 0 10 -262144
-1 -1;
#X msg -327 166 add2 \$1;
#X obj -455 93 sel 247;
#X msg -418 160 add2 247;
#X msg -532 128 set 240;
#X obj -532 12 inlet;
#X obj -533 253 outlet;
#X obj -455 162 bng 15 250 50 0 empty empty empty 17 7 0 10 -262144
-1 -1;
#X obj -455 124 t b b;
#X msg -533 211;
#X connect 0 0 1 0;
#X connect 0 1 3 0;
#X connect 1 0 5 0;
#X connect 2 0 10 0;
#X connect 3 0 9 0;
#X connect 3 1 2 0;
#X connect 4 0 10 0;
#X connect 5 0 10 0;
#X connect 6 0 0 0;
#X connect 8 0 10 0;
#X connect 9 0 8 0;
#X connect 9 1 4 0;
#X connect 10 0 7 0;
