#N canvas 128 363 339 202 10;
#X obj 33 12 tgl 15 0 \$0-mastertoggle empty Enable/Disable_Tenori-On_XY
17 7 0 10 -262144 -1 -1 0 1;
#X floatatom 49 113 5 0 15 1 - #0-panchout -, f 5;
#X obj 49 41 hradio 15 1 0 16 \$0-volchannel empty Volume_Channel 0
-8 0 10 -262144 -1 -1 0;
#X obj 48 94 hradio 15 1 0 16 \$0-panchannel empty Pan_Channel 0 -8
0 10 -262144 -1 -1 0;
#X floatatom 49 62 5 0 15 1 - #0-volchout -, f 5;
#N canvas 490 131 582 476 TenoriOnXy 1;
#X obj 189 163 * 8;
#X obj 148 119 * 8;
#X obj 188 117 - 15;
#X obj 189 138 abs;
#X obj -122 316 &&;
#X obj 215 66 + 1;
#X obj 315 67 + 1;
#X obj -123 97 tgl 15 0 empty empty empty 17 7 0 10 -262144 -1 -1 0
1;
#X obj -91 95 r \$0-toggle;
#X obj 315 93 s \$0-volchout;
#X obj 216 94 s \$0-panchout;
#X msg 96 350 0;
#X obj 62 222 sel 0;
#X obj 93 260 sel 1;
#X obj 63 382 s \$0-toggle;
#X text 42 483 Expression (11);
#X text -124 486 Pan (10);
#X obj -123 27 r \$0-mastertoggle;
#X obj 275 -33 loadbang;
#X obj 149 298 r \$0-mastertoggle;
#X msg 62 260 1;
#X obj -125 468 ctlout 10;
#X obj 147 255 s \$0-xpos;
#X obj 225 255 s \$0-ypos;
#X obj 42 464 ctlout 11;
#X obj -125 439 v \$0-xpos;
#X obj -63 440 v \$0-panchout;
#X obj 40 436 v \$0-ypos;
#X obj 104 435 v \$0-volchout;
#X obj -122 347 sel 1;
#X obj -124 171 tgl 15 0 empty empty empty 17 7 0 10 -262144 -1 -1
0 1;
#X msg 8 190 1;
#X obj 62 351 &&;
#X obj 80 23 tnrsyx;
#X obj 148 222 clip 0 127;
#X obj 226 223 clip 0 127;
#X obj 8 117 sel 8;
#X obj 35 155 sel 9;
#X obj 214 18 r \$0-panchannel;
#X obj 314 16 r \$0-volchannel;
#X obj 214 -5 s \$0-volchannel;
#X obj 314 -7 s \$0-panchannel;
#X connect 0 0 35 0;
#X connect 1 0 34 0;
#X connect 2 0 3 0;
#X connect 3 0 0 0;
#X connect 4 0 29 0;
#X connect 5 0 10 0;
#X connect 6 0 9 0;
#X connect 7 0 30 0;
#X connect 8 0 30 0;
#X connect 11 0 14 0;
#X connect 12 0 20 0;
#X connect 12 1 13 0;
#X connect 13 0 11 0;
#X connect 17 0 7 0;
#X connect 18 0 40 0;
#X connect 18 0 41 0;
#X connect 19 0 32 1;
#X connect 20 0 32 0;
#X connect 25 0 21 0;
#X connect 26 0 21 2;
#X connect 27 0 24 0;
#X connect 28 0 24 2;
#X connect 29 0 28 0;
#X connect 29 0 27 0;
#X connect 29 0 26 0;
#X connect 29 0 25 0;
#X connect 30 0 4 1;
#X connect 31 0 4 0;
#X connect 32 0 14 0;
#X connect 33 0 36 0;
#X connect 33 1 1 0;
#X connect 33 2 2 0;
#X connect 34 0 22 0;
#X connect 35 0 23 0;
#X connect 36 0 31 0;
#X connect 36 1 37 0;
#X connect 37 0 31 0;
#X connect 37 1 12 0;
#X connect 38 0 5 0;
#X connect 39 0 6 0;
#X restore 50 138 pd TenoriOnXy;
