#N canvas 272 390 339 202 10;
#X obj 33 12 tgl 15 0 \$0-mastertoggle empty Enable/Disable_Tenori-On_XY
17 7 0 10 -262144 -1 -1 0 1;
#X floatatom 49 113 5 0 15 1 - #0-panchout -, f 5;
#X obj 49 41 hradio 15 1 0 16 \$0-volchannel empty Volume_Channel 0
-8 0 10 -262144 -1 -1 0;
#X obj 48 94 hradio 15 1 0 16 \$0-panchannel empty Pan_Channel 0 -8
0 10 -262144 -1 -1 0;
#X floatatom 49 62 5 0 15 1 - #0-volchout -, f 5;
#N canvas 659 100 582 549 TenoriOnXy 0;
#X obj 153 166 * 8;
#X obj 119 109 * 8;
#X obj 149 108 - 15;
#X obj 151 135 abs;
#X obj -109 144 == 67;
#X obj -85 172 == 115;
#X obj -42 170 == 1;
#X obj -10 169 == 51;
#X obj 30 138 == 0;
#X obj 30 169 &&;
#X obj -9 197 &&;
#X obj -82 251 &&;
#X obj -42 222 &&;
#X obj -108 272 &&;
#X obj -134 311 &&;
#X obj -7 29 syx2list;
#X obj 217 56 + 1;
#X obj 307 54 + 1;
#X obj -4 6 sysexin;
#X obj -129 111 tgl 15 0 empty empty empty 17 7 0 10 -262144 -1 -1
0 1;
#X obj -1 64 unpack f f f f f f f f f f;
#X msg 254 56 1;
#X msg 360 55 1;
#X obj -109 92 r \$0-toggle;
#X obj 163 15 r \$0-panchannel;
#X obj 331 11 r \$0-volchannel;
#X obj 305 94 s \$0-volchout;
#X obj 216 94 s \$0-panchout;
#X msg 108 294 0;
#X obj 80 193 sel 0;
#X obj 109 266 sel 1;
#X obj 105 334 s \$0-toggle;
#X text 42 483 Expression (11);
#X text -124 486 Pan (10);
#X obj -130 25 r \$0-mastertoggle;
#X obj 266 9 loadbang;
#X obj -35 246 r \$0-mastertoggle;
#X obj 80 304 &&;
#X msg 78 218 1;
#X obj -121 71 print mastertoggle;
#X obj 80 356 print togglechange;
#X obj -98 51 print syx2list;
#X obj -125 468 ctlout 10;
#X obj 201 330 s \$0-xpos;
#X obj 267 332 s \$0-ypos;
#X obj 42 464 ctlout 11;
#X obj -125 439 v \$0-xpos;
#X obj -63 440 v \$0-panchout;
#X obj 40 436 v \$0-ypos;
#X obj 104 435 v \$0-volchout;
#X obj -75 354 sel 1;
#X obj -124 171 tgl 15 0 empty empty empty 17 7 0 10 -262144 -1 -1
0 1;
#X obj 201 384 ctlin 10 1;
#X obj 289 385 ctlin 11 1;
#X obj -53 467 print Xpos;
#X obj 114 464 print Ypos;
#X text 222 360 test what's on CH 1;
#X msg 63 139 1;
#X obj 112 143 f;
#X obj 174 212 f;
#X obj 289 412 print ctIN11;
#X obj 201 410 print ctlIN10;
#X obj 72 112 sel 8;
#X obj 191 294 clip 0 120;
#X obj 264 293 clip 0 120;
#X connect 0 0 59 1;
#X connect 1 0 58 1;
#X connect 2 0 3 0;
#X connect 3 0 0 0;
#X connect 4 0 13 0;
#X connect 5 0 11 0;
#X connect 6 0 12 0;
#X connect 7 0 10 0;
#X connect 8 0 9 0;
#X connect 9 0 10 1;
#X connect 10 0 12 1;
#X connect 11 0 13 1;
#X connect 12 0 11 1;
#X connect 13 0 14 0;
#X connect 14 0 50 0;
#X connect 15 0 20 0;
#X connect 15 0 41 0;
#X connect 16 0 27 0;
#X connect 17 0 26 0;
#X connect 18 0 15 0;
#X connect 19 0 51 0;
#X connect 20 1 4 0;
#X connect 20 2 5 0;
#X connect 20 3 6 0;
#X connect 20 4 7 0;
#X connect 20 5 8 0;
#X connect 20 6 62 0;
#X connect 20 7 1 0;
#X connect 20 8 2 0;
#X connect 21 0 27 0;
#X connect 22 0 26 0;
#X connect 23 0 51 0;
#X connect 24 0 16 0;
#X connect 25 0 17 0;
#X connect 28 0 31 0;
#X connect 28 0 40 0;
#X connect 29 0 38 0;
#X connect 29 1 30 0;
#X connect 30 0 28 0;
#X connect 34 0 19 0;
#X connect 34 0 39 0;
#X connect 35 0 22 0;
#X connect 35 0 21 0;
#X connect 36 0 37 1;
#X connect 37 0 31 0;
#X connect 37 0 40 0;
#X connect 38 0 37 0;
#X connect 46 0 42 0;
#X connect 46 0 54 0;
#X connect 47 0 42 2;
#X connect 48 0 45 0;
#X connect 48 0 55 0;
#X connect 49 0 45 2;
#X connect 50 0 58 0;
#X connect 50 0 59 0;
#X connect 50 0 46 0;
#X connect 50 0 47 0;
#X connect 50 0 48 0;
#X connect 50 0 49 0;
#X connect 51 0 14 1;
#X connect 57 0 9 1;
#X connect 58 0 63 0;
#X connect 59 0 64 0;
#X connect 62 0 57 0;
#X connect 62 1 29 0;
#X connect 63 0 43 0;
#X connect 64 0 44 0;
#X restore 50 138 pd TenoriOnXy;
