#N canvas 679 64 505 525 10;
#X obj 73 40 syx2list;
#X obj 73 10 sysexin;
#X obj -53 300 outlet;
#X obj 49 299 outlet;
#X obj 147 299 outlet;
#X obj 337 125 send \$0-data3;
#X obj 246 126 send \$0-data2;
#X obj -53 275 value \$0-data1;
#X obj 49 276 value \$0-data2;
#X obj 147 277 value \$0-data3;
#X obj -54 184 t b b b;
#X obj -54 156 sel 1;
#X obj 73 69 unpack f f f f f f f f f f;
#X obj -54 113 expr ($f1==67) && ($f2==115) && ($f3==1) && ($f4==51)
&& ($f5==0), f 33;
#X obj 157 128 send \$0-data1;
#X text 145 7 listen for sysex bytes;
#X text 146 38 convert message to list;
#X text 15 152 examine 1st 5 bytes for Tenori-On sysex of concern output
next 3 bytes if true;
#X connect 0 0 12 0;
#X connect 1 0 0 0;
#X connect 7 0 2 0;
#X connect 8 0 3 0;
#X connect 9 0 4 0;
#X connect 10 0 7 0;
#X connect 10 1 8 0;
#X connect 10 2 9 0;
#X connect 11 0 10 0;
#X connect 12 1 13 0;
#X connect 12 2 13 1;
#X connect 12 3 13 2;
#X connect 12 4 13 3;
#X connect 12 5 13 4;
#X connect 12 6 14 0;
#X connect 12 7 6 0;
#X connect 12 8 5 0;
#X connect 13 0 11 0;
